<svg xmlns="http://www.w3.org/2000/svg" viewBox="0 0 371 157">
  <path fill="#333" d="m238 0-4 1-38 44-3 3-1-1c-5-6-12-6-16-9-1-2-4-2-6-2h-1l-1 1-16 20-2-1-11-7-2 2c-3 2-5 7-7 9-5 10-11 18-17 26l-1-3c-5-11-32-31-35-33h-5c-1 0-6 5-13 16-6 9-18 21-35 34l-12 10-11 22-1 3 12-11c4-4 5-2 9-6l5-2c4-8 10-15 16-21l9-5-2 9c-2 13-2-1-3-4-1-2-7 4-14 14l-4 8-15 8c-7 6-5 8-6 8l2 2c1 1 27-15 31-17-17 10-26 18-23 18l15-3c4-1 0 6 8 3 5-2 8-19 9-23 1-1 2-6 2-13 2-8 2-10 3-9s-1 9-3 17l-2 17-3 6v9c1 0 9-13 9-7l-1 14c2 1 3-1 3-8 1-10 3-16 8-24 4-5 4-7 3-7l-5 5-4 5 1-8c0-10 3-26 0-29 4-7 6-15 6-15-2-2-10 15-22 23l-6 3c9-7 19-18 26-29a117 117 0 0 1 8-12l1 2 1 1c1 2 1 3 1 1v11c0 9 0 13 1 8a147 147 0 0 0-1-17l2 3 5 20c1 7 3 13 4 13l-1-10-2-11 3 5a261 261 0 0 1 8 21c9 25 17 54 15 54-1 1-6-6-11-14-11-17-23-28-22-24 0 14-15 27-13 29 1 3 17-1 22 6 5 8 22 6 23 7 5 4 5-7-1-27l-8-25 6 1c1 0-6-19-4-20l12 18 6 9a201 201 0 0 0 11 19l-7-14-3-7 3 2c2 1 19 24 20 23s-21-33-29-47l3-3 9-10c2 1 25 17 29 23l5 6c7 4 7 19 14 19 1 1 9-14 10-13l1 1-1-4c-1-1-10 10-11 10-6-1-4-13-10-15l-7-6-13-23h3c0-2-3-2-3-4-3-4-2-9-3-14v1l11 11c5 5 8 6 9 5l5 8c1 1-2 4 1 4 1 0 3 1 4-1-2-5-5-9-9-14l-6-8c-1-2 0-4 1-5l10-13 4-2 2 5c2 7 3 8 12 13l5 5 1 6-1 3c-5 13-5 13-3 16 3 3 5 3 3 0s-2-4 0-10l2 4 8 10 2 5c5 11 13 24 16 27l5 4c2 1 2 1-1-6-3-8-8-17-13-24l10 7 4 3c2 0 3-1 3-2l3-3 2-6 2-3 6-9 1-2a18300 18300 0 0 0 30-48l2-4c1-3 3-6 6-8v-1l-10 20-17 38c0 4 7-4 11-11l-7 21c0 7 10 0 10 6-1 2 1 1 1 0l1-5 1-9 3-6 3-13 1 16-3 7c-1 1 0 3 1 2 2-1 2-3 2-5 1 4 3 7 6 10h5c1 0 1-3-1-3l-1-4 1-10 3-9c1-1 3-2 4-1s2 3 4 2c2 0 3-1 3-3 1-5 0-10-3-14l-7-12-3-12 1-2c2 6 3 16 7 18l6 3c1 1-1 3-2 4 0 2 2 3 3 2 2-1 4-4 2-6l-8-9c-2-1 2-16 0-17-2 1-6-8-5-10l8 4c-2 0-6-3-5-1l3 7c2 5 1 12 1 14 3 10 12 13 19 21 2 2 4 5 4 8l2 8v-8c1-4 1-9-2-12-4-5-5-14-9-19l-5-11 4 3c5 6 9 15 9 17l23 17-3-1c0 2 0 4-2 4l-5 3 2 4 7 5c3 2 7 4 9 8l3 5 1-6-1-9c-2-1-1-3-2-5l-1-1c12 9 23 17 22 15s-58-55-60-59l-8-5h-1a50 50 0 0 0-17-9l-4 7a226 226 0 0 1-10 12c-3 6 1-4-4 6l-1 1-6 13-7 7c-2 0 0 1-1 2l-8 16c-2 5-6 10-10 14l-7 2-8-14c-3-5-9-9-13-14l-9-9 2-4 11-13v2l2 3-1 1 1-1-4 8 5-8c3-1 4 19 7 16l4-26 3 1 2 5 2 1-1-4-2-4 1-5v-1h3l1 3-2 16c0 5-1 9-3 14l-1 3h1l3-8c1-5 4-8 5-14l1-10c4-2 13-11 14-9 4 9 1 4 10 12 3 6 1-1-1-4l-4-4a43 43 0 0 0-16-20l-2-1zm80 42zm-133 69c1 3 1 2 0 0zM240 2l11 12-7-1-5-4 1-7zm-6 0zm-4 5-5 10 9-5-12 8c-1-1 1-2 2-4l6-9zm-5 10v1-1zm57 4 1 1v1l-1-2zm-60 2a34 34 0 0 0-10 12v-3l3-3c3-1 3-5 6-6h1zm3 0h1l-1 1-3 3 3-4zm60 5-1 6-3 4a237 237 0 0 1 4-10zm0 11-4 14 1 5c1 1 7-6 6-6l-6 11v-1c-2 1-3 4-4 6v-2l1-9 1-5 5-13zm-112 3 5 1 3 1c4 1 9 4 7 4h4v1l-1 1v-1l-7-2-9-3h-1l-1-2zm2 2v1-1zm1 0zm0 5h3c1 3 3 7 9 8l1 2v1l-5-4c-6-3-7-4-8-7zm128 3 1 5-3-2 1 3 1 7c-1 5-5 5-8 9-2 2 2 14-1 13-2 0-7-7-7-5 1 2 2 2 3 2 5 3-4 21 0 26l4 5c0 2-2 2-4 3-1 1 1 3 2 3 2 0 5-2 4-4 0-4-3-7-5-10-1-2 11-18 9-20-2 0-3-3-1-4 1-1 10 7 13 17 2 5 2 10 2 14 1-3 3-5 1-15 0-2-9-13-10-21-1-9 7-6 5-12-2-10-4-8-5-9l-2-5zm-165 0 4 1 9 8-12-7-1-2zm57 2 5 5-2-1-3-4zm-59 2s2 3 1 5l-1-4v-1zm200 1zm-200 0c0 3-3 7-6 11l6-11zm-56 3 2 3c4 4 5 10 7 17l-9-20zm122 3 1 3c-1 2-3 7-3 12l6 14c2 3-8-11-8-16l4-10v-3zm110 1v12c-1 5 1 11 4 9l1-4c0-3 0-3 2-3h4c2-1 2-1 3 9v7c-2-1-2-1-2 1l2 4h3c2-1 0-17-2-23l-2-4-2 2c-2 2-3 2-5 1l-4-6-2-5zm-31 1-3 11-1 4v-5l4-10zm54 2h1c4 1 6 5 9 8l3 3-3-2-10-9zm-129 5zm-17 5zm43 11-3 4-1-1-1-1h2l3-2zM31 102l-4 3a269 269 0 0 0 4-3z"/>
  <path d="M310 78c-1 0 0 0 0 0z"/>
</svg>
